<svg width="606" height="166" viewBox="0 0 606 166" fill="none" xmlns="http://www.w3.org/2000/svg">
<g opacity="0.7">
<path d="M233.861 16.4335V32.8671L224.096 41.7611C218.005 47.3593 214.472 50.8808 214.704 51.242C215.96 53.2736 233.21 75.7117 233.396 75.5763C233.489 75.4409 233.721 69.7975 233.861 63.0254L234.093 50.7002L243.532 41.7611C248.74 36.84 252.924 32.5962 252.831 32.3253C252.645 31.603 234.279 -2.28882e-05 234.047 -2.28882e-05C233.954 -2.28882e-05 233.861 7.40411 233.861 16.4335Z" fill="#D1212E"/>
<path d="M33.5999 83.0707C24.4866 84.38 15.0944 89.4816 9.23582 96.3439C5.37661 100.859 2.02887 107.495 0.86646 113.139C-0.481937 119.279 -0.202958 132.055 1.33142 137.247C4.44669 147.496 11.7001 156.074 21.4179 160.95C27.3694 163.929 31.6006 164.922 38.5286 164.968L44.2941 165.013L50.4782 155.667L56.6157 146.322L45.41 146.186L34.1579 146.051L31.0426 144.606C26.672 142.62 23.6032 139.685 21.4644 135.487L19.744 132.1V123.929V115.802L21.2319 112.868C23.9752 107.45 27.8809 104.154 33.507 102.439C36.1108 101.626 38.1101 101.581 61.2653 101.581H86.2339L92.046 92.7322C95.2542 87.8563 98.044 83.5673 98.23 83.2513C98.5555 82.7095 93.6733 82.6192 67.3099 82.6644C50.1062 82.7095 34.9483 82.8901 33.5999 83.0707ZM52.059 94.5381C52.059 94.6735 51.8731 94.8992 51.5941 95.0347C51.3616 95.1701 51.1291 95.0798 51.1291 94.8541C51.1291 94.5832 51.3616 94.3575 51.5941 94.3575C51.8731 94.3575 52.059 94.4478 52.059 94.5381Z" fill="#D1212E"/>
<path d="M108.785 123.929V165.239H118.549H128.314V152.372V139.505H147.982C158.769 139.505 168.44 139.73 169.416 139.956C170.439 140.182 171.881 140.995 172.671 141.717L174.113 143.116L174.252 154.177L174.392 165.239H184.109H193.874V154.403C193.874 148.218 193.641 142.575 193.362 141.22C192.851 138.873 190.526 133.636 188.945 131.333C188.201 130.159 188.201 130.069 189.177 128.714C190.851 126.457 192.804 121.897 193.409 118.872C193.781 117.067 193.92 113.68 193.781 109.392C193.595 103.748 193.362 102.258 192.432 99.7752C189.27 91.5584 182.017 85.2829 173.369 83.2965C170.858 82.7547 165.511 82.6193 139.612 82.6193H108.785V123.929ZM171.416 102.484C173.973 103.974 174.438 105.464 174.252 111.784C174.113 117.337 174.113 117.383 172.671 118.782C171.741 119.685 170.486 120.317 169.184 120.588C168.068 120.769 158.397 120.949 147.749 120.994H128.314V111.288V101.581H149.144C168.952 101.581 170.021 101.626 171.416 102.484Z" fill="#D1212E"/>
<path d="M224.096 105.87C224.096 118.647 224.189 129.121 224.282 129.121C224.375 129.121 228.792 122.62 234.046 114.674L243.624 100.272V91.4229V82.6192H233.86H224.096V105.87Z" fill="#D1212E"/>
<path d="M240.136 123.523C225.072 146.006 212.657 164.606 212.564 164.832C212.471 165.058 216.702 165.239 223.072 165.239H233.72L239.95 155.848L246.227 146.502L263.059 146.367L279.891 146.277V155.758V165.239H289.655H299.419V123.929V82.6193H283.518H267.569L240.136 123.523ZM279.891 114.448V127.315H269.615C260.92 127.315 259.386 127.225 259.572 126.683C259.804 126.051 273.428 105.464 275.334 102.8C276.078 101.807 276.59 101.581 278.077 101.581H279.891V114.448Z" fill="#D1212E"/>
<path d="M324.576 93.2288L317.555 103.838V134.538V165.239H327.086H336.618V149.211V133.184H355.589L374.513 133.139L380.557 124.064C383.905 119.098 386.695 114.809 386.741 114.629C386.834 114.403 375.582 114.222 361.773 114.222H336.618V107.902V101.581H366.283H395.901L400.318 94.2672C402.736 90.2491 405.34 86.0053 406.037 84.7863L407.386 82.6193H369.491H331.597L324.576 93.2288Z" fill="#D1212E"/>
<path d="M420.311 123.929V165.239H438.584H456.857L462.994 156.029C466.389 150.972 469.132 146.728 469.132 146.548C469.132 146.412 462.529 146.277 454.485 146.277H439.839V139.956V133.636H459.042H478.199L484.243 124.516C487.591 119.504 490.381 115.261 490.427 115.035C490.52 114.854 479.175 114.674 465.226 114.674H439.839V108.127V101.581H469.504L499.122 101.536L505.399 92.5065C508.84 87.5403 511.769 83.2965 511.816 83.0256C511.909 82.7998 494.844 82.6193 466.156 82.6193H420.311V123.929Z" fill="#D1212E"/>
<path d="M520.277 123.929V165.239H530.042H539.806V152.372V139.505H559.474C570.261 139.505 579.932 139.73 580.955 139.956C582.118 140.227 583.373 140.949 584.349 141.943L585.837 143.568V154.403V165.239H595.602H605.366V154.268C605.366 140.678 604.761 137.879 600.437 131.333C599.693 130.204 599.693 130.069 600.577 128.85C604.11 123.974 605.366 119.369 605.366 111.062C605.366 104.2 604.761 101.22 602.483 96.6149C600.53 92.6871 595.137 87.45 590.905 85.4635C585 82.6193 585 82.6193 551.104 82.6193H520.277V123.929ZM582.908 102.484C585.372 103.929 585.837 105.373 585.837 111.513V116.931L584.303 118.556C583.234 119.73 582.211 120.272 580.723 120.588C579.56 120.769 569.889 120.949 559.241 120.994H539.806V111.288V101.581H560.636C580.444 101.581 581.513 101.626 582.908 102.484Z" fill="#D1212E"/>
<path d="M67.5409 146.818C66.7505 147.812 55.7773 164.742 55.7773 165.013C55.7773 165.148 62.7983 165.239 71.3536 165.239H86.93V155.758V146.277H77.4447C70.4237 146.277 67.8664 146.412 67.5409 146.818Z" fill="#D1212E"/>
<path d="M477.27 152.688C474.991 156.209 472.202 160.498 471.132 162.169L469.133 165.239H484.942H500.75V155.758V146.277H491.126H481.454L477.27 152.688Z" fill="#D1212E"/>
</g>
</svg>
