<svg width="510" height="143" viewBox="0 0 510 143" fill="none" xmlns="http://www.w3.org/2000/svg">
<g opacity="0.7">
<path d="M197.019 14.2131V28.4261L188.793 36.1183C183.661 40.9601 180.684 44.0057 180.88 44.3181C181.938 46.0752 196.47 65.4814 196.627 65.3642C196.706 65.2471 196.901 60.3662 197.019 54.5093L197.215 43.8495L205.167 36.1183C209.554 31.8622 213.079 28.1918 213.001 27.9575C212.844 27.3328 197.371 0.000144958 197.176 0.000144958C197.097 0.000144958 197.019 6.40379 197.019 14.2131Z" fill="#D1212E"/>
<path d="M28.3067 71.8462C20.6291 72.9785 12.7165 77.3908 7.78084 83.3259C4.5296 87.2305 1.70925 92.9704 0.729961 97.8512C-0.406014 103.162 -0.170985 114.212 1.12168 118.702C3.74617 127.566 9.85694 134.985 18.0438 139.202C23.0578 141.779 26.6224 142.638 32.4589 142.677L37.3162 142.716L42.526 134.633L47.6967 126.551L38.2563 126.433L28.7768 126.316L26.1523 125.067C22.4702 123.349 19.8849 120.811 18.083 117.179L16.6336 114.251V107.183V100.155L17.8871 97.6169C20.1982 92.9313 23.4886 90.0809 28.2284 88.5972C30.422 87.8943 32.1064 87.8553 51.6138 87.8553H72.649L77.5454 80.2021C80.2483 75.9851 82.5985 72.2757 82.7552 72.0023C83.0294 71.5338 78.9164 71.4557 56.7061 71.4947C42.2127 71.5338 29.4427 71.69 28.3067 71.8462ZM43.8579 81.764C43.8579 81.8811 43.7012 82.0764 43.4661 82.1935C43.2703 82.3107 43.0744 82.2326 43.0744 82.0373C43.0744 81.803 43.2703 81.6078 43.4661 81.6078C43.7012 81.6078 43.8579 81.6859 43.8579 81.764Z" fill="#D1212E"/>
<path d="M91.6475 107.183V142.911H99.8735H108.1V131.783V120.655H124.669C133.757 120.655 141.905 120.85 142.727 121.045C143.589 121.24 144.803 121.943 145.469 122.568L146.684 123.778L146.801 133.345L146.919 142.911H155.105H163.331V133.54C163.331 128.191 163.136 123.31 162.901 122.138C162.47 120.108 160.511 115.578 159.179 113.587C158.552 112.572 158.552 112.494 159.375 111.322C160.785 109.37 162.43 105.426 162.94 102.81C163.253 101.248 163.371 98.3199 163.253 94.6104C163.096 89.7296 162.901 88.4411 162.117 86.2935C159.453 79.187 153.343 73.7595 146.057 72.0415C143.942 71.5729 139.437 71.4558 117.618 71.4558H91.6475V107.183ZM144.412 88.6363C146.566 89.9248 146.958 91.2134 146.801 96.6799C146.684 101.483 146.684 101.522 145.469 102.732C144.686 103.513 143.628 104.06 142.531 104.294C141.591 104.45 133.444 104.606 124.473 104.645H108.1V96.2504V87.8554H125.648C142.335 87.8554 143.236 87.8944 144.412 88.6363Z" fill="#D1212E"/>
<path d="M188.792 91.5648C188.792 102.615 188.871 111.674 188.949 111.674C189.028 111.674 192.749 106.051 197.175 99.1789L205.245 86.723V79.0699V71.4558H197.019H188.792V91.5648Z" fill="#D1212E"/>
<path d="M202.307 106.832C189.616 126.277 179.157 142.364 179.078 142.56C179 142.755 182.565 142.911 187.931 142.911H196.901L202.15 134.789L207.439 126.707L221.619 126.59L235.799 126.512V134.711V142.911H244.025H252.251V107.183V71.4558H238.854H225.418L202.307 106.832ZM235.799 98.9837V110.112H227.142C219.817 110.112 218.524 110.034 218.681 109.565C218.877 109.019 230.354 91.2134 231.96 88.9096C232.587 88.0506 233.018 87.8554 234.271 87.8554H235.799V98.9837Z" fill="#D1212E"/>
<path d="M273.443 80.6317L267.528 89.8077V116.359V142.911H275.558H283.589V129.05V115.188H299.571L315.513 115.149L320.606 107.301C323.426 103.005 325.776 99.296 325.816 99.1398C325.894 98.9446 316.414 98.7884 304.78 98.7884H283.589V93.3219V87.8554H308.58H333.532L337.254 81.5298C339.291 78.0547 341.484 74.3843 342.072 73.33L343.208 71.4558H311.283H279.358L273.443 80.6317Z" fill="#D1212E"/>
<path d="M354.097 107.183V142.911H369.491H384.886L390.056 134.946C392.916 130.572 395.227 126.902 395.227 126.746C395.227 126.629 389.664 126.512 382.888 126.512H370.549V121.045V115.578H386.727H402.865L407.958 107.691C410.778 103.357 413.128 99.6865 413.167 99.4913C413.246 99.3351 403.688 99.1789 391.936 99.1789H370.549V93.5171V87.8554H395.54L420.493 87.8163L425.781 80.007C428.679 75.7119 431.147 72.0415 431.186 71.8072C431.265 71.612 416.889 71.4558 392.72 71.4558H354.097V107.183Z" fill="#D1212E"/>
<path d="M438.316 107.183V142.911H446.542H454.768V131.783V120.655H471.338C480.425 120.655 488.573 120.85 489.435 121.045C490.414 121.279 491.472 121.904 492.294 122.763L493.548 124.169V133.54V142.911H501.774H510V133.423C510 121.67 509.491 119.249 505.848 113.587C505.221 112.611 505.221 112.494 505.965 111.44C508.942 107.223 510 103.24 510 96.0552C510 90.1201 509.491 87.543 507.571 83.5602C505.926 80.1632 501.382 75.6338 497.818 73.9157C492.843 71.4558 492.843 71.4558 464.287 71.4558H438.316V107.183ZM491.08 88.6363C493.156 89.8858 493.548 91.1353 493.548 96.4456V101.131L492.255 102.537C491.354 103.552 490.492 104.021 489.239 104.294C488.26 104.45 480.112 104.606 471.142 104.645H454.768V96.2504V87.8554H472.317C489.004 87.8554 489.905 87.8944 491.08 88.6363Z" fill="#D1212E"/>
<path d="M56.9016 126.98C56.2357 127.839 46.9912 142.482 46.9912 142.716C46.9912 142.833 52.9061 142.911 60.1137 142.911H73.2362V134.711V126.512H65.2452C59.3303 126.512 57.1758 126.629 56.9016 126.98Z" fill="#D1212E"/>
<path d="M402.083 132.056C400.163 135.102 397.813 138.811 396.912 140.256L395.228 142.911H408.546H421.864V134.711V126.512H413.756H405.608L402.083 132.056Z" fill="#D1212E"/>
</g>
</svg>
