<svg width="36" height="30" viewBox="0 0 36 30" fill="none" xmlns="http://www.w3.org/2000/svg">
<path d="M35.5743 2.75201C35.0849 7.90792 32.9638 20.4387 31.8869 26.2147C31.43 28.6621 30.5163 29.4779 29.6679 29.5758C27.7752 29.7389 26.3394 28.3358 24.512 27.1284C21.6403 25.2357 20.0087 24.0609 17.235 22.2335C14.0044 20.1124 16.0928 18.9376 17.9529 17.045C18.4424 16.5555 26.7962 8.95215 26.9594 8.26687C26.9821 8.16308 26.9791 8.05532 26.9506 7.95296C26.9222 7.8506 26.8692 7.75673 26.7962 7.67949C26.6005 7.51633 26.3394 7.58159 26.111 7.61423C25.8173 7.67949 21.2488 10.7143 12.3401 16.7186C11.0348 17.5997 9.86007 18.0566 8.81583 18.0239C7.64107 17.9913 5.42207 17.3713 3.75782 16.8165C1.70199 16.1639 0.103003 15.8049 0.233533 14.6628C0.298797 14.0754 1.11461 13.488 2.64833 12.868C12.177 8.72372 18.5076 5.98261 21.673 4.67732C30.7448 0.891966 32.6048 0.239319 33.8448 0.239319C34.1059 0.239319 34.7259 0.304582 35.1175 0.630905C35.4438 0.891964 35.5417 1.25092 35.5743 1.51198C35.5417 1.70777 35.607 2.29516 35.5743 2.75201Z" fill="#404040"/>
</svg>
