<svg width="34" height="34" viewBox="0 0 34 34" fill="none" xmlns="http://www.w3.org/2000/svg">
<path d="M16.9651 0.257599C26.2401 0.257599 33.7584 7.77594 33.7584 17.0508C33.7584 26.3258 26.2401 33.8441 16.9651 33.8441C13.9974 33.8489 11.0819 33.0635 8.51814 31.5686L0.178616 33.8441L2.44906 25.5012C0.952941 22.9367 0.166941 20.0199 0.171898 17.0508C0.171898 7.77594 7.69024 0.257599 16.9651 0.257599ZM11.242 9.15802L10.9061 9.17146C10.6887 9.1847 10.4762 9.24182 10.2814 9.33939C10.0993 9.44255 9.93297 9.57151 9.78771 9.72227C9.58619 9.91204 9.472 10.0766 9.34941 10.2361C8.72826 11.0437 8.39383 12.0352 8.39891 13.0541C8.40227 13.8769 8.61722 14.678 8.95309 15.4269C9.63993 16.9417 10.7701 18.5454 12.2614 20.0317C12.6207 20.3893 12.9734 20.7487 13.3529 21.0829C15.2059 22.7143 17.414 23.8908 19.8015 24.5188L20.7554 24.6649C21.0661 24.6817 21.3767 24.6582 21.6891 24.6431C22.1782 24.6178 22.6557 24.4854 23.088 24.2552C23.3079 24.1419 23.5225 24.0186 23.7311 23.8857C23.7311 23.8857 23.8034 23.8387 23.9411 23.7346C24.1678 23.5666 24.3072 23.4474 24.4952 23.2509C24.6346 23.1065 24.7555 22.9369 24.8479 22.7438C24.9789 22.47 25.1099 21.9478 25.1636 21.5128C25.2039 21.1803 25.1922 20.9989 25.1871 20.8864C25.1804 20.7067 25.0309 20.5203 24.8681 20.4414L23.8907 20.0031C23.8907 20.0031 22.4297 19.3666 21.5363 18.9602C21.4428 18.9194 21.3426 18.8961 21.2407 18.8914C21.1258 18.8796 21.0097 18.8925 20.9002 18.9293C20.7907 18.9661 20.6904 19.0259 20.6059 19.1047C20.5975 19.1013 20.485 19.197 19.2709 20.6681C19.2012 20.7618 19.1052 20.8325 18.9951 20.8714C18.8851 20.9103 18.7659 20.9155 18.6529 20.8864C18.5435 20.8571 18.4363 20.8201 18.3321 20.7756C18.1239 20.6883 18.0517 20.6547 17.9089 20.5942C16.9451 20.1736 16.0527 19.6054 15.264 18.9099C15.0524 18.7251 14.8559 18.5236 14.6544 18.3288C13.9937 17.6961 13.4179 16.9803 12.9415 16.1994L12.8424 16.0399C12.7712 15.9327 12.7137 15.8171 12.6711 15.6956C12.6073 15.4488 12.7736 15.2506 12.7736 15.2506C12.7736 15.2506 13.1816 14.8039 13.3714 14.5621C13.5561 14.327 13.7123 14.0986 13.8131 13.9357C14.0112 13.6166 14.0734 13.2892 13.9692 13.0356C13.499 11.8869 13.012 10.7433 12.5116 9.60808C12.4125 9.38305 12.1186 9.22184 11.8516 9.18993C11.7609 9.17985 11.6702 9.16978 11.5796 9.16306C11.354 9.15186 11.128 9.1541 10.9028 9.16978L11.242 9.15802Z" fill="#404040"/>
</svg>
