<svg width="221" height="82" viewBox="0 0 221 82" fill="none" xmlns="http://www.w3.org/2000/svg">
<path d="M84.9887 6.1311V12.2622L81.4402 15.5804C79.2266 17.669 77.9424 18.9828 78.0269 19.1176C78.4831 19.8755 84.7521 28.2468 84.8197 28.1963C84.8535 28.1457 84.938 26.0403 84.9887 23.5137L85.0731 18.9154L88.5033 15.5804C90.3959 13.7444 91.9166 12.1611 91.8829 12.0601C91.8153 11.7906 85.1407 1.52588e-05 85.0562 1.52588e-05C85.0225 1.52588e-05 84.9887 2.76237 84.9887 6.1311Z" fill="#D1212E"/>
<path d="M12.2107 30.9923C8.89883 31.4808 5.48553 33.3841 3.35644 35.9443C1.95395 37.6287 0.737323 40.1047 0.314885 42.2102C-0.175143 44.5009 -0.0737581 49.2676 0.48386 51.2047C1.616 55.0282 4.25201 58.2285 7.78359 60.0476C9.94648 61.1593 11.4842 61.5298 14.0019 61.5467L16.0972 61.5635L18.3446 58.0769L20.575 54.5902L16.5027 54.5397L12.4135 54.4892L11.2814 53.9502C9.69302 53.2091 8.57778 52.1142 7.80049 50.5478L7.17528 49.2845V46.2358V43.2039L7.716 42.1091C8.71296 40.0879 10.1324 38.8583 12.177 38.2182C13.1232 37.915 13.8498 37.8982 22.2648 37.8982H31.3388L33.4509 34.5968C34.6169 32.7777 35.6307 31.1776 35.6983 31.0597C35.8166 30.8575 34.0424 30.8239 24.4615 30.8407C18.2094 30.8575 12.7008 30.9249 12.2107 30.9923ZM18.9191 35.2706C18.9191 35.3211 18.8515 35.4053 18.7501 35.4559C18.6656 35.5064 18.5811 35.4727 18.5811 35.3885C18.5811 35.2874 18.6656 35.2032 18.7501 35.2032C18.8515 35.2032 18.9191 35.2369 18.9191 35.2706Z" fill="#D1212E"/>
<path d="M39.5342 46.2358V61.6477H43.0827H46.6311V56.8473V52.0469H53.7788C57.699 52.0469 61.2137 52.1311 61.5686 52.2153C61.9403 52.2995 62.4641 52.6027 62.7514 52.8722L63.2752 53.3944L63.3259 57.521L63.3766 61.6477H66.9082H70.4567V57.6053C70.4567 55.2977 70.3722 53.1922 70.2708 52.6869C70.0849 51.811 69.24 49.8572 68.6655 48.9982C68.3952 48.5602 68.3952 48.5265 68.75 48.0212C69.3583 47.179 70.068 45.4778 70.2877 44.3493C70.4229 43.6756 70.4736 42.4123 70.4229 40.8122C70.3553 38.7067 70.2708 38.1509 69.9328 37.2245C68.7838 34.1589 66.1478 31.8176 63.0049 31.0765C62.0924 30.8744 60.1492 30.8239 50.7372 30.8239H39.5342V46.2358ZM62.2952 38.2351C63.2245 38.7909 63.3935 39.3468 63.3259 41.7049C63.2752 43.7766 63.2752 43.7935 62.7514 44.3156C62.4134 44.6525 61.9572 44.8883 61.4841 44.9894C61.0785 45.0567 57.5638 45.1241 53.6943 45.141H46.6311V41.5196V37.8982H54.2012C61.3996 37.8982 61.7882 37.915 62.2952 38.2351Z" fill="#D1212E"/>
<path d="M81.4399 39.4983C81.4399 44.2651 81.4737 48.1728 81.5075 48.1728C81.5413 48.1728 83.1466 45.7473 85.056 42.7829L88.5369 37.4097V34.1084V30.8239H84.9884H81.4399V39.4983Z" fill="#D1212E"/>
<path d="M87.2698 46.0842C81.795 54.4723 77.2834 61.4119 77.2496 61.4961C77.2158 61.5804 78.7535 61.6477 81.0684 61.6477H84.9379L87.2022 58.1443L89.4834 54.6576L95.6003 54.6071L101.717 54.5734V58.1106V61.6477H105.266H108.814V46.2358V30.8239H103.035H97.2394L87.2698 46.0842ZM101.717 42.6986V47.4991H97.9828C94.823 47.4991 94.2654 47.4654 94.333 47.2633C94.4175 47.0275 99.3684 39.3468 100.061 38.353C100.332 37.9824 100.517 37.8982 101.058 37.8982H101.717V42.6986Z" fill="#D1212E"/>
<path d="M117.956 34.7821L115.404 38.7404V50.1941V61.6477H118.868H122.332V55.6682V49.6888H129.226L136.104 49.6719L138.3 46.2863C139.517 44.4335 140.531 42.8334 140.548 42.766C140.582 42.6818 136.492 42.6144 131.474 42.6144H122.332V40.2563V37.8982H133.113H143.877L145.482 35.1695C146.361 33.6704 147.307 32.0871 147.56 31.6324L148.05 30.8239H134.279H120.507L117.956 34.7821Z" fill="#D1212E"/>
<path d="M152.748 46.2358V61.6477H159.388H166.029L168.259 58.2116C169.493 56.3251 170.49 54.7418 170.49 54.6745C170.49 54.6239 168.091 54.5734 165.167 54.5734H159.845V52.2153V49.8572H166.823H173.785L175.982 46.4548C177.198 44.5851 178.212 43.0018 178.229 42.9176C178.263 42.8502 174.14 42.7829 169.071 42.7829H159.845V40.3405V37.8982H170.625L181.389 37.8814L183.67 34.5126C184.92 32.6598 185.985 31.0765 186.002 30.9755C186.036 30.8912 179.834 30.8239 169.409 30.8239H152.748V46.2358Z" fill="#D1212E"/>
<path d="M189.078 46.2358V61.6477H192.626H196.175V56.8473V52.0469H203.322C207.242 52.0469 210.757 52.1311 211.129 52.2153C211.551 52.3164 212.008 52.5859 212.362 52.9564L212.903 53.5628V57.6053V61.6477H216.452H220V57.5547C220 52.4848 219.78 51.4405 218.209 48.9982C217.939 48.5771 217.939 48.5265 218.26 48.0718C219.544 46.2526 220 44.5346 220 41.4354C220 38.8751 219.78 37.7635 218.952 36.0454C218.243 34.58 216.283 32.6261 214.745 31.885C212.599 30.8239 212.599 30.8239 200.281 30.8239H189.078V46.2358ZM211.839 38.2351C212.734 38.7741 212.903 39.3131 212.903 41.6038V43.625L212.346 44.2314C211.957 44.6693 211.585 44.8715 211.044 44.9894C210.622 45.0567 207.107 45.1241 203.238 45.141H196.175V41.5196V37.8982H203.745C210.943 37.8982 211.332 37.915 211.839 38.2351Z" fill="#D1212E"/>
<path d="M24.5456 54.7755C24.2583 55.1461 20.2705 61.4625 20.2705 61.5635C20.2705 61.614 22.822 61.6477 25.9312 61.6477H31.5919V58.1106V54.5734H28.1448C25.5932 54.5734 24.6639 54.6239 24.5456 54.7755Z" fill="#D1212E"/>
<path d="M173.447 56.9652C172.619 58.279 171.605 59.8792 171.217 60.5024L170.49 61.6477H176.235H181.981V58.1106V54.5734H178.483H174.968L173.447 56.9652Z" fill="#D1212E"/>
</svg>
