<svg width="60" height="60" viewBox="0 0 60 60" fill="none" xmlns="http://www.w3.org/2000/svg">
<path d="M25.5325 19.6175L20.0025 16.54V15.0025H27.25L29.21 7.5025H30.83L32.79 15.0025H39.9975V16.53L34.505 19.7125L36.715 26.4275L35.455 27.3L30.0225 23.1L24.565 27.3175L23.365 26.4125L25.5375 19.62L25.5325 19.6175ZM43.3575 18.91L44.5575 19.815L50.015 15.5975L55.4475 19.7975L56.71 18.925L54.5 12.21L59.9925 9.0275V7.5H52.785L50.825 0H49.205L47.245 7.5H39.9975V9.0375L45.5275 12.115L43.355 18.9075L43.3575 18.91ZM3.3575 33.91L4.5575 34.815L10.015 30.5975L15.4475 34.7975L16.71 33.925L14.5 27.21L19.9925 24.0275V22.5H12.785L10.825 15H9.205L7.245 22.5H0V24.0375L5.53 27.115L3.3575 33.9075V33.91ZM60 33.75V60H0V48.75C0 45.305 2.8025 42.5 6.25 42.5H16.25C16.6775 42.5 17.095 42.5425 17.5 42.625V41.25C17.5 37.805 20.3025 35 23.75 35H33.75C34.1775 35 34.595 35.0425 35 35.125V33.75C35 30.305 37.8025 27.5 41.25 27.5H53.75C57.1975 27.5 60 30.305 60 33.75ZM22.5 55H35V41.25C35 40.56 34.4375 40 33.75 40H23.75C23.0625 40 22.5 40.56 22.5 41.25V55ZM5 55H17.5V48.75C17.5 48.06 16.9375 47.5 16.25 47.5H6.25C5.5625 47.5 5 48.06 5 48.75V55ZM55 33.75C55 33.06 54.4375 32.5 53.75 32.5H41.25C40.5625 32.5 40 33.06 40 33.75V55H55V33.75Z" fill="#D1212E"/>
</svg>
