<svg width="546" height="154" viewBox="0 0 546 154" fill="none" xmlns="http://www.w3.org/2000/svg">
<g opacity="0.7">
<path d="M210.927 15.5912V30.8074L202.12 39.0426C196.626 44.2262 193.439 47.4868 193.649 47.8212C194.781 49.7023 210.339 70.4784 210.507 70.353C210.591 70.2275 210.801 65.0022 210.927 58.7318L211.136 47.3196L219.649 39.0426C224.346 34.4861 228.121 30.5566 228.037 30.3058C227.869 29.637 211.304 0.374954 211.094 0.374954C211.01 0.374954 210.927 7.23063 210.927 15.5912Z" fill="#D1212E"/>
<path d="M30.3049 77.2923C22.0853 78.5046 13.6141 83.2283 8.33008 89.5824C4.84934 93.7627 1.8299 99.9077 0.781488 105.133C-0.434674 110.818 -0.183054 122.648 1.20085 127.456C4.01061 136.945 10.5527 144.888 19.3175 149.402C24.6854 152.161 28.5016 153.081 34.7501 153.123L39.9503 153.165L45.5279 144.511L51.0635 135.858L40.9568 135.733L30.8081 135.607L27.9984 134.27C24.0563 132.43 21.2885 129.713 19.3594 125.825L17.8078 122.69V115.124V107.599L19.1497 104.882C21.624 99.8659 25.1467 96.8143 30.221 95.2258C32.5694 94.4733 34.3727 94.4315 55.2572 94.4315H77.7771L83.0192 86.2382C85.9128 81.7234 88.429 77.7522 88.5968 77.4595C88.8903 76.9579 84.487 76.8743 60.7089 76.9161C45.1924 76.9579 31.521 77.1251 30.3049 77.2923ZM46.9537 87.9103C46.9537 88.0357 46.786 88.2447 46.5343 88.3701C46.3247 88.4955 46.115 88.4119 46.115 88.2029C46.115 87.9521 46.3247 87.7431 46.5343 87.7431C46.786 87.7431 46.9537 87.8267 46.9537 87.9103Z" fill="#D1212E"/>
<path d="M98.1167 115.124V153.374H106.923H115.73V141.46V129.546H133.469C143.199 129.546 151.921 129.755 152.802 129.964C153.725 130.173 155.025 130.925 155.738 131.594L157.038 132.89L157.163 143.132L157.289 153.374H166.054H174.861V143.341C174.861 137.614 174.651 132.388 174.399 131.134C173.938 128.961 171.841 124.112 170.415 121.98C169.744 120.893 169.744 120.809 170.625 119.555C172.135 117.465 173.896 113.243 174.441 110.442C174.777 108.77 174.903 105.635 174.777 101.663C174.609 96.438 174.399 95.0585 173.561 92.7594C170.709 85.1513 164.167 79.3407 156.367 77.5013C154.102 76.9997 149.279 76.8743 125.921 76.8743H98.1167V115.124ZM154.605 95.2676C156.912 96.647 157.331 98.0265 157.163 103.879C157.038 109.021 157.038 109.062 155.738 110.358C154.899 111.194 153.767 111.78 152.592 112.031C151.586 112.198 142.863 112.365 133.26 112.407H115.73V103.419V94.4315H134.518C152.383 94.4315 153.347 94.4733 154.605 95.2676Z" fill="#D1212E"/>
<path d="M202.119 98.4027C202.119 110.233 202.203 119.931 202.287 119.931C202.371 119.931 206.355 113.912 211.094 106.554L219.733 93.2191V85.0258V76.8742H210.926H202.119V98.4027Z" fill="#D1212E"/>
<path d="M216.588 114.748C203 135.566 191.803 152.788 191.719 152.997C191.635 153.206 195.451 153.374 201.197 153.374H210.8L216.42 144.679L222.081 136.025L237.262 135.9L252.443 135.816V144.595V153.374H261.25H270.057V115.124V76.8743H255.714H241.33L216.588 114.748ZM252.443 106.345V118.259H243.175C235.333 118.259 233.949 118.176 234.117 117.674C234.327 117.089 246.614 98.0265 248.334 95.5602C249.005 94.6405 249.466 94.4315 250.808 94.4315H252.443V106.345Z" fill="#D1212E"/>
<path d="M292.745 86.698L286.413 96.5216V124.948V153.374H295.01H303.607V138.534V123.694H320.717L337.785 123.652L343.237 115.249C346.256 110.651 348.773 106.68 348.815 106.513C348.898 106.304 338.75 106.136 326.295 106.136H303.607V100.284V94.4315H330.362H357.076L361.06 87.6594C363.241 83.939 365.589 80.0095 366.218 78.8808L367.434 76.8743H333.256H299.078L292.745 86.698Z" fill="#D1212E"/>
<path d="M379.092 115.124V153.374H395.573H412.054L417.59 144.846C420.651 140.164 423.125 136.234 423.125 136.067C423.125 135.942 417.17 135.816 409.915 135.816H396.705V129.964V124.112H414.025H431.303L436.755 115.667C439.774 111.027 442.29 107.098 442.332 106.889C442.416 106.722 432.184 106.554 419.603 106.554H396.705V100.493V94.4315H423.461L450.174 94.3897L455.836 86.0291C458.939 81.4308 461.581 77.5013 461.623 77.2505C461.707 77.0415 446.316 76.8743 420.441 76.8743H379.092V115.124Z" fill="#D1212E"/>
<path d="M469.256 115.124V153.374H478.063H486.869V141.46V129.546H504.608C514.338 129.546 523.061 129.755 523.983 129.964C525.032 130.215 526.164 130.884 527.045 131.803L528.386 133.308V143.341V153.374H537.193H546V143.215C546 130.633 545.455 128.041 541.555 121.98C540.884 120.935 540.884 120.809 541.68 119.68C544.868 115.166 546 110.902 546 103.21C546 96.8561 545.455 94.0971 543.4 89.8332C541.638 86.1963 536.774 81.3472 532.958 79.5079C527.632 76.8743 527.632 76.8743 497.06 76.8743H469.256V115.124ZM525.744 95.2676C527.967 96.6052 528.386 97.9429 528.386 103.628V108.644L527.003 110.149C526.038 111.236 525.115 111.738 523.773 112.031C522.725 112.198 514.002 112.365 504.399 112.407H486.869V103.419V94.4315H505.657C523.522 94.4315 524.486 94.4733 525.744 95.2676Z" fill="#D1212E"/>
<path d="M60.9178 136.318C60.2049 137.238 50.3079 152.914 50.3079 153.165C50.3079 153.29 56.6403 153.374 64.3566 153.374H78.4054V144.595V135.816H69.8503C63.5179 135.816 61.2114 135.942 60.9178 136.318Z" fill="#D1212E"/>
<path d="M430.465 141.752C428.41 145.013 425.894 148.984 424.929 150.531L423.126 153.374H437.384H451.643V144.595V135.816H442.962H434.239L430.465 141.752Z" fill="#D1212E"/>
</g>
</svg>
